
<svg xmlns="http://www.w3.org/2000/svg" version="1.1" xmlns:xlink="http://www.w3.org/1999/xlink" preserveAspectRatio="none" x="0px" y="0px" width="200px" height="200px" viewBox="0 0 200 200">
<defs>
<g id="Layer1_0_FILL">
<path fill="#822728" stroke="none" d="
M 186.35 13.65
Q 177.75 5.05 165.55 5.05
L 34.45 5.05
Q 22.25 5.05 13.6 13.65 5 22.25 5 34.45
L 5 165.6
Q 5 177.8 13.6 186.45 22.25 195 34.45 195
L 165.55 195
Q 177.75 195 186.35 186.45 195 177.8 195 165.6
L 195 34.45
Q 195 22.25 186.35 13.65
M 85.95 43.65
Q 89.894140625 39.755859375 95.5 39.75
L 104.7 39.75
Q 110.3056640625 39.755859375 114.2 43.65 118.2025390625 47.652734375 118.2 53.25
L 118.2 54.1 132.05 54.1
Q 137.6556640625 54.105859375 141.55 58 145.5525390625 62.002734375 145.55 67.6
L 145.55 71.1
Q 145.55 72.5498046875 144.5 73.55 143.4998046875 74.6 142.05 74.6
L 139 74.6 131.5 156.25
Q 131.4033203125 157.6125 130.4 158.5 129.39609375 159.4466796875 128.05 159.45
L 72.15 159.45
Q 70.80390625 159.4466796875 69.8 158.5 68.7966796875 157.6123046875 68.65 156.25
L 61.15 74.6 57.5 74.6
Q 56.0501953125 74.6 55 73.55 54 72.5498046875 54 71.1
L 54 67.6
Q 53.9994140625 62.01796875 57.9 58.05
L 57.95 58
Q 61.91796875 54.0994140625 67.5 54.1
L 82 54.1 82 53.25
Q 81.997265625 47.652734375 85.95 43.65
M 124.85 152.45
L 132 74.6 68.15 74.6 75.3 152.45 124.85 152.45
M 136.6 62.95
Q 134.744140625 61.0939453125 132.05 61.1
L 67.5 61.1
Q 64.817578125 61.100390625 62.9 62.95 62.8751953125 62.9751953125 62.85 63 61.000390625 64.917578125 61 67.6
L 138.55 67.6
Q 138.5470703125 64.896875 136.6 62.95
M 95.5 46.75
Q 92.8056640625 46.7439453125 90.9 48.6 89.002734375 50.546875 89 53.25
L 89 54.1 111.2 54.1 111.2 53.25
Q 111.1970703125 50.546875 109.25 48.6 107.394140625 46.7439453125 104.7 46.75
L 95.5 46.75 Z"/>
</g>
</defs>

<g transform="matrix( 1, 0, 0, 1, 0,0) ">
<use xlink:href="#Layer1_0_FILL"/>
</g>
</svg>
