
<svg xmlns="http://www.w3.org/2000/svg" version="1.1" xmlns:xlink="http://www.w3.org/1999/xlink" preserveAspectRatio="none" x="0px" y="0px" width="200px" height="200px" viewBox="0 0 200 200">
<defs>
<g id="Layer1_0_FILL">
<path fill="#9DC8DB" stroke="none" d="
M 195 34.45
Q 195 22.25 186.35 13.65 177.75 5.05 165.55 5.05
L 34.45 5.05
Q 22.25 5.05 13.6 13.65 5 22.25 5 34.45
L 5 165.6
Q 5 177.8 13.6 186.45 22.25 195 34.45 195
L 165.55 195
Q 177.75 195 186.35 186.45 195 177.8 195 165.6
L 195 34.45
M 130.5 42.85
Q 131.55 41.8498046875 133 41.85 134.4498046875 41.8498046875 135.45 42.85
L 160.65 68.05
Q 161.7 69.1 161.7 70.55 161.7 71.9998046875 160.65 73
L 106 127.9
Q 105.1330078125 128.8125 103.85 128.9
L 74.1 131.7
Q 73.0826171875 131.827734375 72.15 131.3 71.20703125 130.8294921875 70.7 129.9 70.209375 128.9537109375 70.3 127.9
L 72.85 101.6
Q 72.9951171875 100.3607421875 73.85 99.45
L 130.5 42.85
M 87.05 60.8
Q 88.4998046875 60.8 89.5 61.8 90.55 62.8501953125 90.55 64.3 90.55 65.7498046875 89.5 66.75 88.4998046875 67.8 87.05 67.8
L 66 67.8
Q 59.5 67.8 59.5 74.3
L 59.5 139.8
Q 59.5 146.3 66 146.3
L 131.5 146.3
Q 138 146.3 138 139.8
L 138 116.4
Q 138 114.9501953125 139 113.9 140.0501953125 112.9 141.5 112.9 142.9498046875 112.9 143.95 113.9 145 114.9501953125 145 116.4
L 145 139.8
Q 145 153.3 131.5 153.3
L 66 153.3
Q 52.5 153.3 52.5 139.8
L 52.5 74.3
Q 52.5 60.8 66 60.8
L 87.05 60.8
M 138.75 85.05
L 118.5 64.8 79.7 103.55 77.65 124.35 101.95 122.1 138.75 85.05
M 143.7 80.1
L 153.25 70.55 133 50.3 123.45 59.85 143.7 80.1 Z"/>
</g>
</defs>

<g transform="matrix( 1, 0, 0, 1, 0,0) ">
<use xlink:href="#Layer1_0_FILL"/>
</g>
</svg>
