
<svg xmlns="http://www.w3.org/2000/svg" version="1.1" xmlns:xlink="http://www.w3.org/1999/xlink" preserveAspectRatio="none" x="0px" y="0px" width="200px" height="200px" viewBox="0 0 200 200">
<defs>
<g id="Layer1_0_FILL">
<path fill="#FFFFFF" stroke="none" d="
M 168 168
Q 196.2 139.85 196.2 100 196.2 60.15 168 31.95 139.85 3.8 100 3.8 60.15 3.8 31.95 31.95 3.8 60.15 3.8 100 3.8 139.85 31.95 168 60.15 196.2 100 196.2 139.85 196.2 168 168
M 103.5 60.8
L 103.5 96.5 139.2 96.5
Q 140.6498046875 96.5 141.65 97.5 142.7 98.5501953125 142.7 100 142.7 101.4498046875 141.65 102.45 140.6498046875 103.5 139.2 103.5
L 103.5 103.5 103.5 139.25
Q 103.5 140.6998046875 102.45 141.7 101.4498046875 142.75 100 142.75 98.5501953125 142.75 97.5 141.7 96.5 140.6998046875 96.5 139.25
L 96.5 103.5 60.75 103.5
Q 59.3001953125 103.5 58.25 102.45 57.25 101.4498046875 57.25 100 57.25 98.5501953125 58.25 97.5 59.3001953125 96.5 60.75 96.5
L 96.5 96.5 96.5 60.8
Q 96.5 59.3501953125 97.5 58.3 98.5501953125 57.3 100 57.3 101.4498046875 57.3 102.45 58.3 103.5 59.3501953125 103.5 60.8 Z"/>
</g>
</defs>

<g transform="matrix( 1, 0, 0, 1, 0,0) ">
<use xlink:href="#Layer1_0_FILL"/>
</g>
</svg>
